<svg xmlns="http://www.w3.org/2000/svg" width="720" height="420" viewBox="0 0 720 420" role="img" aria-labelledby="title desc">
<title id="title">Connected evidence illustration</title><desc id="desc">Website, Content and Sources feed into an illustrative AI answer with citation markers.</desc>
<defs>
<linearGradient id="paper" x1="0" y1="0" x2="1" y2="1"><stop stop-color="#FFFFFF" stop-opacity=".98"/><stop offset="1" stop-color="#F4F9FC" stop-opacity=".84"/></linearGradient>
<linearGradient id="blue-glass" x1="0" y1="0" x2="1" y2="1"><stop stop-color="#FBFDFF" stop-opacity=".93"/><stop offset=".52" stop-color="#EFF5FF" stop-opacity=".84"/><stop offset="1" stop-color="#CEE0FF" stop-opacity=".82"/></linearGradient>
<linearGradient id="green-glass" x1="0" y1="0" x2="1" y2="1"><stop stop-color="#F9FEFC" stop-opacity=".96"/><stop offset="1" stop-color="#DAF1EB" stop-opacity=".88"/></linearGradient>
<linearGradient id="violet-glass" x1="0" y1="0" x2="1" y2="1"><stop stop-color="#FFFFFF" stop-opacity=".96"/><stop offset="1" stop-color="#EDEDFD" stop-opacity=".87"/></linearGradient>
<linearGradient id="execute" x1="0" y1="0" x2="1" y2="1"><stop stop-color="#86DDBA"/><stop offset=".58" stop-color="#43C797"/><stop offset="1" stop-color="#28B782"/></linearGradient>
<radialGradient id="blue-haze"><stop stop-color="#B7D4F9" stop-opacity=".38"/><stop offset="1" stop-color="#EFF7FF" stop-opacity="0"/></radialGradient>
<radialGradient id="green-haze"><stop stop-color="#AEE0CD" stop-opacity=".38"/><stop offset="1" stop-color="#F1FAF8" stop-opacity="0"/></radialGradient>
<radialGradient id="violet-haze"><stop stop-color="#CED4FB" stop-opacity=".43"/><stop offset="1" stop-color="#F4F5FF" stop-opacity="0"/></radialGradient>
<linearGradient id="blue-area" x1="0" y1="0" x2="0" y2="1"><stop stop-color="#7BCCF3" stop-opacity=".15"/><stop offset="1" stop-color="#C9E9F6" stop-opacity="0"/></linearGradient>
<linearGradient id="green-area" x1="0" y1="0" x2="0" y2="1"><stop stop-color="#63CFA5" stop-opacity=".15"/><stop offset="1" stop-color="#BCE7D8" stop-opacity="0"/></linearGradient>
<filter id="shadow" x="-25%" y="-25%" width="150%" height="170%"><feDropShadow dx="0" dy="12" stdDeviation="12" flood-color="#526D93" flood-opacity=".07"/></filter>
<filter id="grain" x="0" y="0" width="100%" height="100%"><feTurbulence type="fractalNoise" baseFrequency=".7" numOctaves="3" stitchTiles="stitch"/><feColorMatrix type="saturate" values="0"/></filter>
<marker id="arrow" viewBox="0 0 12 12" refX="10" refY="6" markerWidth="8" markerHeight="8" orient="auto-start-reverse"><path d="M3 2 L7 6 L3 10" fill="none" stroke="#A9D7C8" stroke-width="1.5" stroke-linecap="round" stroke-linejoin="round"/></marker>
<clipPath id="bounds"><rect width="720" height="420" rx="0"/></clipPath></defs>
<g clip-path="url(#bounds)"><rect width="720" height="420" fill="#F8FAFC"/><ellipse cx="585" cy="290" rx="350" ry="340" fill="url(#blue-haze)"/><ellipse cx="180" cy="390" rx="350" ry="250" fill="url(#green-haze)"/><rect width="720" height="420" filter="url(#grain)" opacity=".025"/><path d="M242 96 H309 V210 H411" fill="none" stroke="#B8D5DF" stroke-width="2" stroke-linecap="round" stroke-linejoin="round" /><path d="M242 210 H309 V210 H411" fill="none" stroke="#B8D5DF" stroke-width="2" stroke-linecap="round" stroke-linejoin="round" /><path d="M242 324 H309 V210 H411" fill="none" stroke="#B8D5DF" stroke-width="2" stroke-linecap="round" stroke-linejoin="round" /><rect x="48" y="55" width="194" height="82" rx="10" fill="url(#paper)" stroke="#DEEBEE" stroke-width="1.4" filter="url(#shadow)"/><rect x="70" y="77" width="25" height="33" rx="3" fill="none" stroke="#8DACBE" stroke-width="1.4" /><path d="M76 88 h13 m-13 7 h13" fill="none" stroke="#8DACBE" stroke-width="1.6" stroke-linecap="round" stroke-linejoin="round" /><text x="109" y="104" font-family="Arial, Helvetica, sans-serif" font-size="23" font-weight="400" fill="#526D7C" >Website</text><rect x="48" y="169" width="194" height="82" rx="10" fill="url(#paper)" stroke="#DEEBEE" stroke-width="1.4" filter="url(#shadow)"/><rect x="70" y="191" width="25" height="33" rx="3" fill="none" stroke="#8DACBE" stroke-width="1.4" /><path d="M76 202 h13 m-13 7 h13" fill="none" stroke="#8DACBE" stroke-width="1.6" stroke-linecap="round" stroke-linejoin="round" /><text x="109" y="218" font-family="Arial, Helvetica, sans-serif" font-size="23" font-weight="400" fill="#526D7C" >Content</text><rect x="48" y="283" width="194" height="82" rx="10" fill="url(#paper)" stroke="#DEEBEE" stroke-width="1.4" filter="url(#shadow)"/><rect x="70" y="305" width="25" height="33" rx="3" fill="none" stroke="#8DACBE" stroke-width="1.4" /><path d="M76 316 h13 m-13 7 h13" fill="none" stroke="#8DACBE" stroke-width="1.6" stroke-linecap="round" stroke-linejoin="round" /><text x="109" y="332" font-family="Arial, Helvetica, sans-serif" font-size="23" font-weight="400" fill="#526D7C" >Sources</text><rect x="284" y="191" width="51" height="38" rx="7" fill="#ECF6F7" stroke="#C6E3E2" stroke-width="1.4" /><path d="M299 205 h12 m-12 10 h21" fill="none" stroke="#70A7A1" stroke-width="2" stroke-linecap="round" stroke-linejoin="round" /><rect x="411" y="81" width="263" height="260" rx="10" fill="url(#paper)" stroke="#D7E7F2" stroke-width="1.4" filter="url(#shadow)"/><text x="438" y="125" font-family="Arial, Helvetica, sans-serif" font-size="26" font-weight="500" fill="#2C526A" >AI answer</text><path d="M439 158 h189" fill="none" stroke="#D8E5EC" stroke-width="5" stroke-linecap="round" stroke-linejoin="round" /><path d="M439 173 h163" fill="none" stroke="#D8E5EC" stroke-width="5" stroke-linecap="round" stroke-linejoin="round" /><path d="M439 188 h180" fill="none" stroke="#D8E5EC" stroke-width="5" stroke-linecap="round" stroke-linejoin="round" /><path d="M439 219 h167" fill="none" stroke="#D8E5EC" stroke-width="5" stroke-linecap="round" stroke-linejoin="round" /><path d="M439 234 h141" fill="none" stroke="#D8E5EC" stroke-width="5" stroke-linecap="round" stroke-linejoin="round" /><rect x="439" y="272" width="37" height="30" rx="5" fill="#E9F5F1" stroke="#D2E9E0" stroke-width="1.4" /><text x="457.5" y="293" font-family="Arial, Helvetica, sans-serif" font-size="16" font-weight="500" fill="#5A9A83" text-anchor="middle" >1</text><rect x="491" y="272" width="37" height="30" rx="5" fill="#E9F5F1" stroke="#D2E9E0" stroke-width="1.4" /><text x="509.5" y="293" font-family="Arial, Helvetica, sans-serif" font-size="16" font-weight="500" fill="#5A9A83" text-anchor="middle" >2</text><rect x="543" y="272" width="37" height="30" rx="5" fill="#E9F5F1" stroke="#D2E9E0" stroke-width="1.4" /><text x="561.5" y="293" font-family="Arial, Helvetica, sans-serif" font-size="16" font-weight="500" fill="#5A9A83" text-anchor="middle" >3</text></g></svg>